<svg width="24" height="24" viewBox="0 0 24 24" fill="none" xmlns="http://www.w3.org/2000/svg">
<path fill-rule="evenodd" clip-rule="evenodd" d="M12 3.29999C9.40426 3.29999 7.3 5.40425 7.3 7.99999C7.3 10.5957 9.40426 12.7 12 12.7C14.5957 12.7 16.7 10.5957 16.7 7.99999C16.7 5.40425 14.5957 3.29999 12 3.29999ZM8.7 7.99999C8.7 6.17745 10.1775 4.69999 12 4.69999C13.8225 4.69999 15.3 6.17745 15.3 7.99999C15.3 9.82253 13.8225 11.3 12 11.3C10.1775 11.3 8.7 9.82253 8.7 7.99999Z" fill="black"/>
<path d="M11.9694 15.5077C8.70633 15.5077 6.00591 17.8904 5.51923 21H3.99649C4.4944 17.0511 7.87639 14 11.9694 14C16.0625 14 19.4444 17.0511 19.9424 21H18.4196C17.9329 17.8904 15.2325 15.5077 11.9694 15.5077Z" fill="black"/>
</svg>
