<svg width="24" height="24" viewBox="0 0 24 24" fill="none" xmlns="http://www.w3.org/2000/svg">
<path d="M14.2291 3.7C14.2291 3.3134 13.9157 3 13.5291 3H10.268C9.88139 3 9.56799 3.3134 9.56799 3.7V5.37591C9.56799 5.67083 9.38163 5.93093 9.11211 6.05067C8.74818 6.21235 8.40162 6.40424 8.07588 6.62301C7.84297 6.77944 7.54183 6.80518 7.29677 6.66858L5.71187 5.78517C5.38144 5.60098 4.96445 5.71265 4.77029 6.03733L3.15863 8.73233C2.95592 9.0713 3.07361 9.51075 3.41859 9.70304L4.84165 10.4962C5.10747 10.6444 5.24318 10.947 5.20743 11.2492C5.1783 11.4956 5.16333 11.746 5.16333 11.9999C5.16333 12.191 5.17181 12.3801 5.18842 12.567C5.21464 12.8619 5.0785 13.153 4.81985 13.2972L3.37403 14.1031C3.02905 14.2954 2.91136 14.7348 3.11407 15.0738L4.72573 17.7688C4.91989 18.0935 5.33688 18.2051 5.66731 18.021L7.12227 17.21C7.37412 17.0696 7.68433 17.1009 7.91909 17.2683C8.28969 17.5325 8.68916 17.7612 9.1121 17.9491C9.38162 18.0689 9.56799 18.329 9.56799 18.6239V20.2999C9.56799 20.6865 9.88139 20.9999 10.268 20.9999H13.5291C13.9157 20.9999 14.2291 20.6865 14.2291 20.2999V18.6626C14.2291 18.3641 14.4198 18.1018 14.6941 17.9841C15.1651 17.7819 15.6079 17.5295 16.015 17.2338C16.2503 17.0629 16.5633 17.0299 16.8173 17.1714L18.3416 18.0211C18.6721 18.2053 19.089 18.0936 19.2832 17.7689L20.8949 15.0739C21.0976 14.7349 20.9799 14.2955 20.6349 14.1032L19.072 13.232C18.8156 13.0891 18.6793 12.8016 18.7026 12.509C18.716 12.341 18.7229 12.1712 18.7229 11.9999C18.7229 11.7656 18.7101 11.5342 18.6852 11.3063C18.6525 11.0063 18.7884 10.7073 19.052 10.5604L20.5904 9.70292C20.9353 9.51063 21.053 9.07118 20.8503 8.73222L19.2386 6.03721C19.0445 5.71254 18.6275 5.60087 18.2971 5.78505L16.6446 6.70614C16.3974 6.84392 16.0934 6.81648 15.8599 6.65663C15.4962 6.40768 15.1059 6.19247 14.6941 6.01572C14.4198 5.89803 14.2291 5.63566 14.2291 5.33721V3.7Z" stroke="black" stroke-width="2" stroke-linejoin="round"/>
<path d="M15 12C15 13.6569 13.6569 15 12 15C10.3431 15 9 13.6569 9 12C9 10.3431 10.3431 9 12 9C13.6569 9 15 10.3431 15 12Z" stroke="black" stroke-width="2"/>
</svg>
