<svg width="24" height="24" viewBox="0 0 24 24" fill="none" xmlns="http://www.w3.org/2000/svg">
<path d="M10.1078 3C8.12691 3 6.52106 4.67023 6.52106 6.73056C6.52106 8.32619 7.4842 9.68784 8.83881 10.2209C8.8058 9.97298 8.78873 9.71975 8.78873 9.46238C8.78873 9.29823 8.79567 9.13576 8.80927 8.97528C8.07829 8.51685 7.58946 7.68308 7.58946 6.73056C7.58946 5.28395 8.71698 4.11123 10.1078 4.11123C10.6644 4.11123 11.1787 4.29899 11.5956 4.61693C11.9458 4.42414 12.3194 4.27121 12.7108 4.16397C12.0572 3.44708 11.1327 3 10.1078 3Z" fill="black"/>
<path d="M9.18874 11.5603C6.47902 11.9715 4.34297 14.22 4 17.0491H5.16207C5.51948 14.674 7.44133 12.8331 9.80481 12.6977C9.55828 12.3478 9.35071 11.9664 9.18874 11.5603Z" fill="black"/>
<path fill-rule="evenodd" clip-rule="evenodd" d="M13.9388 5.95086C11.9579 5.95086 10.352 7.62109 10.352 9.68142C10.352 11.7418 11.9579 13.412 13.9388 13.412C15.9198 13.412 17.5256 11.7418 17.5256 9.68142C17.5256 7.62109 15.9198 5.95086 13.9388 5.95086ZM11.4204 9.68142C11.4204 8.23481 12.548 7.06209 13.9388 7.06209C15.3297 7.06209 16.4572 8.23481 16.4572 9.68142C16.4572 11.128 15.3297 12.3008 13.9388 12.3008C12.548 12.3008 11.4204 11.128 11.4204 9.68142Z" fill="black"/>
<path d="M13.9155 15.6406C11.4253 15.6406 9.36447 17.5318 8.99305 20H7.83099C8.21097 16.8656 10.7919 14.4438 13.9155 14.4438C17.0391 14.4438 19.62 16.8656 20 20H18.8379C18.4665 17.5318 16.4057 15.6406 13.9155 15.6406Z" fill="black"/>
<path d="M10.1078 3C8.12691 3 6.52106 4.67023 6.52106 6.73056C6.52106 8.32619 7.4842 9.68784 8.83881 10.2209C8.8058 9.97298 8.78873 9.71975 8.78873 9.46238C8.78873 9.29823 8.79567 9.13576 8.80927 8.97528C8.07829 8.51685 7.58946 7.68308 7.58946 6.73056C7.58946 5.28395 8.71698 4.11123 10.1078 4.11123C10.6644 4.11123 11.1787 4.29899 11.5956 4.61693C11.9458 4.42414 12.3194 4.27121 12.7108 4.16397C12.0572 3.44708 11.1327 3 10.1078 3Z" stroke="black" stroke-width="0.5"/>
<path d="M9.18874 11.5603C6.47902 11.9715 4.34297 14.22 4 17.0491H5.16207C5.51948 14.674 7.44133 12.8331 9.80481 12.6977C9.55828 12.3478 9.35071 11.9664 9.18874 11.5603Z" stroke="black" stroke-width="0.5"/>
<path fill-rule="evenodd" clip-rule="evenodd" d="M13.9388 5.95086C11.9579 5.95086 10.352 7.62109 10.352 9.68142C10.352 11.7418 11.9579 13.412 13.9388 13.412C15.9198 13.412 17.5256 11.7418 17.5256 9.68142C17.5256 7.62109 15.9198 5.95086 13.9388 5.95086ZM11.4204 9.68142C11.4204 8.23481 12.548 7.06209 13.9388 7.06209C15.3297 7.06209 16.4572 8.23481 16.4572 9.68142C16.4572 11.128 15.3297 12.3008 13.9388 12.3008C12.548 12.3008 11.4204 11.128 11.4204 9.68142Z" stroke="black" stroke-width="0.5"/>
<path d="M13.9155 15.6406C11.4253 15.6406 9.36447 17.5318 8.99305 20H7.83099C8.21097 16.8656 10.7919 14.4438 13.9155 14.4438C17.0391 14.4438 19.62 16.8656 20 20H18.8379C18.4665 17.5318 16.4057 15.6406 13.9155 15.6406Z" stroke="black" stroke-width="0.5"/>
</svg>
